# AST/ASF file generated using VICON BodyLanguage
# -----------------------------------------------
:version 1.10
:name VICON
:units
  mass 1.0
  length 0.45
  angle deg
:documentation
   .ast/.asf automatically generated from VICON data using
   VICON BodyBuilder and BodyLanguage model FoxedUp or BRILLIANT.MOD
:root
   order TX TY TZ RX RY RZ
   axis XYZ
   position 0 0 0  
   orientation 0 0 0 
:bonedata
  begin
     id 1 
     name lhipjoint
     direction 0.603808 -0.713975 0.35448 
     length 2.2025 
     axis 0 0 0  XYZ
  end
  begin
     id 2 
     name lfemur
     direction 0.34202 -0.939693 0  
     length 6.55877  
     axis 0 0 20  XYZ
    dof rx ry rz
    limits (-160.0 20.0)
           (-70.0 70.0)
           (-60.0 70.0)
  end
  begin
     id 3 
     name ltibia
     direction 0.34202 -0.939693 0   
     length 6.80302   
     axis 0 0 20   XYZ
    dof rx
    limits (-10.0 170.0)
  end
  begin
     id 4 
     name lfoot
     direction 0.091848 -0.25235 0.963267   
     length 2.03446   
     axis -90 7.62852e-016 20   XYZ
    dof rx rz
    limits (-45.0 90.0)
           (-70.0 20.0)
  end
  begin
     id 5 
     name ltoes
     direction 1.53608e-011 -4.21925e-011 1   
     length 1.02033   
     axis -90 7.62852e-016 20   XYZ
    dof rx
    limits (-90.0 20.0)
  end
  begin
     id 6 
     name rhipjoint
     direction -0.587285 -0.724947 0.359928   
     length 2.16916  
     axis 0 0 0  XYZ 
  end
  begin
     id 7 
     name rfemur
     direction -0.34202 -0.939693 0   
     length 6.43173   
     axis 0 0 -20   XYZ
    dof rx ry rz
    limits (-160.0 20.0)
           (-70.0 70.0)
           (-70.0 60.0)
  end
  begin
     id 8 
     name rtibia
     direction -0.34202 -0.939693 0   
     length 6.70662   
     axis 0 0 -20   XYZ
    dof rx
    limits (-10.0 170.0)
 end
 begin
     id 9 
     name rfoot
     direction -0.11854 -0.325686 0.938018   
     length 2.0773  
     axis -90 -7.62852e-016 -20   XYZ
    dof rx rz
    limits (-45.0 90.0)
           (-20.0 70.0)
  end
  begin
     id 10 
     name rtoes
     direction -1.53547e-011 -4.21838e-011 1   
     length 1.03267   
     axis -90 -7.62852e-016 -20   XYZ
    dof rx
    limits (-90.0 20.0)
  end
  begin
     id 11 
     name lowerback
     direction -0.0286554 0.999539 0.0100613   
     length 2.08751   
     axis 0 0 0   XYZ
    dof rx ry rz
    limits (-20.0 45.0)
           (-30.0 30.0)
           (-30.0 30.0)
  end
  begin
     id 12 
     name upperback
     direction 0.0227093 0.999705 -0.00860929   
     length 2.08517   
     axis 0 0 0   XYZ
    dof rx ry rz
    limits (-20.0 45.0)
           (-30.0 30.0)
           (-30.0 30.0)
  end
  begin
     id 13 
     name thorax
     direction 0.0351627 0.999285 -0.013892   
     length 2.08412   
     axis 0 0 0   XYZ
    dof rx ry rz
    limits (-20.0 45.0)
           (-30.0 30.0)
           (-30.0 30.0)
  end
  begin
     id 14 
     name lowerneck
     direction -0.0696283 0.997344 0.0213922   
     length 1.44164   
     axis 0 0 0   XYZ
    dof rx ry rz
    limits (-20.0 45.0)
           (-30.0 30.0)
           (-30.0 30.0)
  end
  begin
     id 15 
     name upperneck
     direction 0.0531 0.990412 -0.127531   
     length 1.45022   
     axis 0 0 0   XYZ
    dof rx ry rz
    limits (-20.0 45.0)
           (-30.0 30.0)
           (-30.0 30.0)
  end
  begin
     id 16
     name head
     direction 0.0188154 0.998548 -0.0504727  
     length 1.45845  
     axis 0 0 0   XYZ
    dof rx ry rz
    limits (-20.0 45.0)
           (-30.0 30.0)
           (-30.0 30.0)
  end
  begin
     id 17 
     name lclavicle
     direction 0.961559 0.260051 0.088188  
     length 2.86057  
     axis 0 0 0   XYZ
    dof ry rz
    limits (-20.0 10.0)
           (0.0 20.0)
  end
  begin
     id 18 
     name lhumerus
     direction 1 -4.48959e-011 2.88185e-027   
     length 4.36901   
     axis 180 -30 -90   XYZ
    dof rx ry rz
    limits (-60.0 90.0)
           (-90.0 90.0)
           (-90.0 90.0)
  end
  begin
     id 19
     name lradius
     direction 1 -4.48965e-011 -3.92618e-028   
     length 3.21737   
     axis 180 -30 -90   XYZ
    dof rx
    limits (-10.0 170.0)
  end
  begin
     id 20
     name lwrist
     direction 1 -4.49037e-011 2.57246e-027   
     length 1.60869   
     axis -1.61769e-015 90 90   XYZ
    dof ry
    limits (-180.0 0.0)
 end
  begin
     id 21 
     name lhand
     direction 1 -4.48807e-011 5.12958e-027   
     length 0.564313   
     axis -3.27988e-015 90 90   XYZ
    dof rx rz
    limits (-90.0 90.0)
           (-45.0 45.0)
  end
  begin
     id 22 
     name lfingers
     direction 1 -4.48879e-011 1.02687e-026   
     length 0.454963   
     axis -6.5598e-015 90 90   XYZ
    dof rx
    limits (0.0 90.0)
  end
  begin
     id 23
     name lthumb
     direction 0.707107 -6.3475e-011 0.707107   
     length 0.653239   
     axis -90 45 2.19363e-014   XYZ
    dof rx rz
    limits (-45.0 45.0)
           (-45.0 45.0)
  end
  begin
     id 24 
     name rclavicle
     direction -0.954677 0.253915 0.155304   
     length 3.11497  
     axis 0 0 0   XYZ 
    dof ry rz
    limits (-10.0 20.0)
           (-20.0 0.0)
  end
  begin
     id 25 
     name rhumerus
     direction -1 -4.48958e-011 -8.20169e-028  
     length 4.34118   
     axis 180 30 90   XYZ
    dof rx ry rz
    limits (-90.0 60.0)
           (-90.0 90.0)
           (-90.0 90.0)
  end
  begin
     id 26 
     name rradius
     direction -1 -4.48978e-011 1.5676e-027   
     length 3.09531   
     axis 180 30 90   XYZ
    dof rx
    limits (-10.0 170.0)
  end
  begin
     id 27 
     name rwrist
     direction -1 -4.49001e-011 2.57123e-027   
     length 1.54765   
     axis -1.61769e-015 -90 -90   XYZ
    dof ry
    limits (-180.0 0.0)
  end
  begin
     id 28
     name rhand
     direction -1 -4.48847e-011 5.13225e-027   
     length 0.597446   
     axis -3.27988e-015 -90 -90   XYZ
    dof rx rz
    limits (-90.0 90.0)
           (-45.0 45.0)
  end
  begin
     id 29
     name rfingers
     direction -1 -4.49094e-011 1.02974e-026   
     length 0.481677   
     axis -6.5598e-015 -90 -90   XYZ
    dof rx
    limits (0.0 90.0)
  end
  begin
     id 30
     name rthumb
     direction -0.707107 -6.34859e-011 0.707107   
     length 0.691594   
     axis -90 -45 -2.19363e-014   XYZ
    dof rx rz
    limits (-45.0 45.0)
           (-45.0 45.0)
  end
:hierarchy
  begin
    root lhipjoint rhipjoint lowerback
    lhipjoint lfemur
    lfemur ltibia
    ltibia lfoot
    lfoot ltoes
    rhipjoint rfemur
    rfemur rtibia
    rtibia rfoot
    rfoot rtoes
    lowerback upperback
    upperback thorax
    thorax lowerneck lclavicle rclavicle
    lowerneck upperneck
    upperneck head
    lclavicle lhumerus
    lhumerus lradius
    lradius lwrist
    lwrist lhand lthumb
    lhand lfingers
    rclavicle rhumerus
    rhumerus rradius
    rradius rwrist
    rwrist rhand rthumb
    rhand rfingers
  end

#!OML:ASF G:\acrobat\cartwheel_test 2\Patient 1\Session 1\acrobat.ASF
:FULLY-SPECIFIED
:DEGREES
65
root 7.55007 14.5943 -0.611322 -10.0724 -0.170404 1.63073
lowerback -0.831132 -0.295554 -3.04914
upperback 0.365777 -0.36948 1.38187
thorax 0.869894 -0.20608 3.12401
lowerneck -9.38491 -5.26692 -6.45933
upperneck 17.3008 -6.83744 3.5544
head 7.19186 -3.41071 1.58598
rclavicle -6.95746e-015 1.19271e-015
rhumerus 44.005 1.51945 -65.9675
rradius 20.2419
rwrist 29.5967
rhand -20.2408 38.3099
rfingers 7.12502
rthumb 6.10731 8.41793
lclavicle -6.95746e-015 1.19271e-015
lhumerus 42.058 -18.6007 44.0994
lradius 28.7051
lwrist 16.0809
lhand -17.4302 41.5359
lfingers 7.12502
lthumb 8.8202 71.3316
rfemur -10.1864 -5.67819 12.0595
rtibia 52.5056
rfoot -30.0165 -16.4494
rtoes -14.1365
lfemur -13.153 5.17596 -9.85129
ltibia 53.7925
lfoot -23.8357 11.7436
ltoes -15.1992
66
root 7.55153 14.5956 -0.612367 -10.0305 -0.163349 1.59327
lowerback -0.839447 -0.301892 -2.99316
upperback 0.329932 -0.378559 1.38329
thorax 0.838072 -0.209219 3.0938
lowerneck -9.31076 -5.26408 -6.41707
upperneck 17.3444 -6.84747 3.55613
head 7.19188 -3.41385 1.58035
rclavicle 7.95139e-016 7.95139e-016
rhumerus 43.9475 1.71416 -65.8256
rradius 20.2054
rwrist 29.0943
rhand -20.5818 38.68
rfingers 7.12502
rthumb 5.77809 8.77878
lclavicle 7.95139e-016 7.95139e-016
lhumerus 42.0315 -18.6026 44.1088
lradius 28.6764
lwrist 15.9866
lhand -17.3904 41.503
lfingers 7.12502
lthumb 8.85864 71.297
rfemur -10.2234 -5.72514 12.0998
rtibia 52.5277
rfoot -29.9721 -16.4446
rtoes -14.1657
lfemur -13.2201 5.17177 -9.82114
ltibia 53.8267
lfoot -23.854 11.7462
ltoes -15.2887
67
root 7.55362 14.5959 -0.612931 -9.95039 -0.136465 1.63569
lowerback -0.883953 -0.309685 -3.024
upperback 0.274171 -0.387511 1.36361
thorax 0.806569 -0.212422 3.09066
lowerneck -9.17119 -5.24226 -6.37005
upperneck 17.3038 -6.83513 3.56787
head 7.15193 -3.40589 1.58171
rclavicle -1.98785e-016 0
rhumerus 43.8922 1.67675 -65.9226
rradius 20.1844
rwrist 29.2165
rhand -20.5938 38.7676
rfingers 7.12502
rthumb 5.76653 8.86602
lclavicle -1.98785e-016 0
lhumerus 41.9991 -18.6255 44.1234
lradius 28.6482
lwrist 15.8942
lhand -17.4301 41.6482
lfingers 7.12502
lthumb 8.82028 71.4438
rfemur -10.3348 -5.81211 12.029
rtibia 52.5852
rfoot -29.9583 -16.469
rtoes -14.3402
lfemur -13.3371 5.14636 -9.90385
ltibia 53.8507
lfoot -23.8438 11.7817
ltoes -15.5725
68
root 7.55672 14.5962 -0.612499 -9.8833 -0.121471 1.73091
lowerback -0.922644 -0.309877 -3.1091
upperback 0.226209 -0.385778 1.3431
thorax 0.779377 -0.21071 3.11746
lowerneck -9.09349 -5.21789 -6.38337
upperneck 17.2972 -6.81874 3.6457
head 7.13824 -3.39341 1.6127
rclavicle 4.77083e-015 6.36111e-015
rhumerus 43.8028 1.85258 -65.7716
rradius 20.288
rwrist 29.048
rhand -20.4197 38.475
rfingers 7.12502
rthumb 5.93465 8.57814
lclavicle 4.77083e-015 6.36111e-015
lhumerus 41.9944 -18.6855 44.122
lradius 28.6103
lwrist 15.9017
lhand -17.5524 41.8109
lfingers 7.12502
lthumb 8.70231 71.6115
rfemur -10.4072 -5.87142 11.8864
rtibia 52.5724
rfoot -29.9093 -16.477
rtoes -14.5714
lfemur -13.4054 5.10515 -10.0455
ltibia 53.8504
lfoot -23.9085 11.7234
ltoes -15.2491
69
root 7.55886 14.5968 -0.611936 -9.88408 -0.0957876 1.78878
lowerback -0.904575 -0.319033 -3.18184
upperback 0.229159 -0.397685 1.35053
thorax 0.773782 -0.216972 3.16602
lowerneck -9.13645 -5.20817 -6.41369
upperneck 17.3252 -6.80913 3.70224
head 7.15744 -3.38533 1.63554
rclavicle -7.05686e-015 -2.38542e-015
rhumerus 43.7669 2.18228 -65.4001
rradius 20.4459
rwrist 28.6662
rhand -20.1362 37.8308
rfingers 7.12502
rthumb 6.2083 7.94177
lclavicle -7.05686e-015 -2.38542e-015
lhumerus 42.0234 -18.7076 44.1165
lradius 28.574
lwrist 15.9467
lhand -17.696 41.8946
lfingers 7.12502
lthumb 8.56373 71.7009
rfemur -10.3747 -5.89536 11.789
rtibia 52.4949
rfoot -29.7935 -16.4904
rtoes -14.7684
lfemur -13.3985 5.06143 -10.1308
ltibia 53.852
lfoot -23.9381 11.6779
ltoes -14.947
